<?xml version="1.0" standalone="no"?>
<!DOCTYPE svg PUBLIC "-//W3C//DTD SVG 20010904//EN"
 "http://www.w3.org/TR/2001/REC-SVG-20010904/DTD/svg10.dtd">
<svg version="1.0" xmlns="http://www.w3.org/2000/svg"
 width="400.000000pt" height="400.000000pt" viewBox="0 0 400.000000 400.000000"
 preserveAspectRatio="xMidYMid meet">
<metadata>
Created by potrace 1.14, written by Peter Selinger 2001-2017
</metadata>
<g transform="translate(0.000000,400.000000) scale(0.100000,-0.100000)"
fill="#000000" stroke="none">
<path d="M0 2000 l0 -2000 2000 0 2000 0 0 2000 0 2000 -2000 0 -2000 0 0
-2000z m2521 744 c283 -163 520 -301 527 -306 9 -8 12 -130 12 -549 l0 -538
68 -3 67 -3 0 -200 0 -200 -1195 0 -1195 0 0 200 0 200 73 3 72 3 0 540 0 540
37 22 c108 64 1009 585 1014 586 4 1 238 -132 520 -295z"/>
<path d="M1700 2410 c-162 -94 -305 -177 -317 -186 l-23 -14 0 -430 0 -430
645 0 645 0 0 433 0 432 -310 178 c-170 99 -318 181 -327 183 -11 2 -142 -68
-313 -166z"/>
</g>
</svg>
