<svg width="313" height="62" viewBox="0 0 313 62" fill="none" xmlns="http://www.w3.org/2000/svg">
<g clip-path="url(#clip0_192_7311)">
<g clip-path="url(#clip1_192_7311)">
<path d="M268.43 15.9199V6.50994C268.43 6.44994 268.4 6.38994 268.34 6.34994L259.32 1.14994C259.28 1.11994 259.22 1.11994 259.18 1.14994L250.16 6.34994C250.1 6.37994 250.07 6.43994 250.07 6.50994V15.9199H248.89C248.81 15.9199 248.75 15.9799 248.75 16.0599V19.3199C248.75 19.3999 248.81 19.4599 248.89 19.4599H250.07H254.93H263.58H268.44H269.54C269.62 19.4599 269.68 19.3999 269.68 19.3199V16.0599C269.68 15.9799 269.62 15.9199 269.54 15.9199H268.43ZM253.61 15.9199L253.64 8.33994L259.25 5.09994L264.86 8.33994V15.9199H253.61Z" fill="#FDC300"/>
<path d="M273.6 2.55994H274.9C275.67 2.55994 276.29 3.17994 276.29 3.94994V16.6499C276.29 17.4199 275.67 18.0399 274.9 18.0399H273.6C272.83 18.0399 272.21 17.4199 272.21 16.6499V3.94994C272.21 3.17994 272.83 2.55994 273.6 2.55994Z" fill="#474F5D"/>
<path d="M279.29 2.55994H280.59C281.36 2.55994 281.98 3.17994 281.98 3.94994V16.6499C281.98 17.4199 281.36 18.0399 280.59 18.0399H279.29C278.52 18.0399 277.9 17.4199 277.9 16.6499V3.94994C277.9 3.17994 278.53 2.55994 279.29 2.55994Z" fill="#474F5D"/>
<path d="M284.99 2.55994H286.29C287.06 2.55994 287.68 3.17994 287.68 3.94994V16.6499C287.68 17.4199 287.06 18.0399 286.29 18.0399H284.99C284.22 18.0399 283.6 17.4199 283.6 16.6499V3.94994C283.6 3.17994 284.22 2.55994 284.99 2.55994Z" fill="#474F5D"/>
<path d="M232.11 2.55994H233.41C234.18 2.55994 234.8 3.17994 234.8 3.94994V16.6499C234.8 17.4199 234.18 18.0399 233.41 18.0399H232.11C231.34 18.0399 230.72 17.4199 230.72 16.6499V3.94994C230.72 3.17994 231.34 2.55994 232.11 2.55994Z" fill="#474F5D"/>
<path d="M237.8 2.55994H239.1C239.87 2.55994 240.49 3.17994 240.49 3.94994V16.6499C240.49 17.4199 239.87 18.0399 239.1 18.0399H237.8C237.03 18.0399 236.41 17.4199 236.41 16.6499V3.94994C236.41 3.17994 237.04 2.55994 237.8 2.55994Z" fill="#474F5D"/>
<path d="M243.5 2.55994H244.8C245.57 2.55994 246.19 3.17994 246.19 3.94994V16.6499C246.19 17.4199 245.57 18.0399 244.8 18.0399H243.5C242.73 18.0399 242.11 17.4199 242.11 16.6499V3.94994C242.11 3.17994 242.73 2.55994 243.5 2.55994Z" fill="#474F5D"/>
<path d="M308.45 3.95994V5.25994C308.45 6.02994 307.83 6.64994 307.06 6.64994H294.36C293.59 6.64994 292.97 6.02994 292.97 5.25994V3.95994C292.97 3.18994 293.59 2.56994 294.36 2.56994H307.06C307.82 2.55994 308.45 3.18994 308.45 3.95994Z" fill="#474F5D"/>
<path d="M308.45 9.65001V10.95C308.45 11.72 307.83 12.34 307.06 12.34H294.36C293.59 12.34 292.97 11.72 292.97 10.95V9.65001C292.97 8.88001 293.59 8.26001 294.36 8.26001H307.06C307.82 8.26001 308.45 8.88001 308.45 9.65001Z" fill="#474F5D"/>
<path d="M308.45 15.34V16.6399C308.45 17.4099 307.83 18.0299 307.06 18.0299H294.36C293.59 18.0299 292.97 17.4099 292.97 16.6399V15.34C292.97 14.57 293.59 13.95 294.36 13.95H307.06C307.82 13.95 308.45 14.58 308.45 15.34Z" fill="#474F5D"/>
<path d="M246.21 24.43V25.73C246.21 26.5 245.59 27.12 244.82 27.12H232.12C231.35 27.12 230.73 26.5 230.73 25.73V24.43C230.73 23.66 231.35 23.04 232.12 23.04H244.82C245.59 23.04 246.21 23.66 246.21 24.43Z" fill="#474F5D"/>
<path d="M246.21 30.12V31.42C246.21 32.19 245.59 32.81 244.82 32.81H232.12C231.35 32.81 230.73 32.19 230.73 31.42V30.12C230.73 29.35 231.35 28.73 232.12 28.73H244.82C245.59 28.73 246.21 29.35 246.21 30.12Z" fill="#474F5D"/>
<path d="M246.21 35.8199V37.1199C246.21 37.8899 245.59 38.5099 244.82 38.5099H232.12C231.35 38.5099 230.73 37.8899 230.73 37.1199V35.8199C230.73 35.0499 231.35 34.4299 232.12 34.4299H244.82C245.59 34.4299 246.21 35.0499 246.21 35.8199Z" fill="#474F5D"/>
<path d="M294.36 23.04H295.66C296.43 23.04 297.05 23.66 297.05 24.43V37.13C297.05 37.9 296.43 38.52 295.66 38.52H294.36C293.59 38.52 292.97 37.9 292.97 37.13V24.43C292.97 23.66 293.6 23.04 294.36 23.04Z" fill="#474F5D"/>
<path d="M300.06 23.04H301.36C302.13 23.04 302.75 23.66 302.75 24.43V37.13C302.75 37.9 302.13 38.52 301.36 38.52H300.06C299.29 38.52 298.67 37.9 298.67 37.13V24.43C298.67 23.66 299.29 23.04 300.06 23.04Z" fill="#474F5D"/>
<path d="M305.75 23.04H307.05C307.82 23.04 308.44 23.66 308.44 24.43V37.13C308.44 37.9 307.82 38.52 307.05 38.52H305.75C304.98 38.52 304.36 37.9 304.36 37.13V24.43C304.36 23.66 304.98 23.04 305.75 23.04Z" fill="#474F5D"/>
<path d="M273.6 43.51H274.9C275.67 43.51 276.29 44.13 276.29 44.9V57.6C276.29 58.37 275.67 58.99 274.9 58.99H273.6C272.83 58.99 272.21 58.37 272.21 57.6V44.9C272.21 44.13 272.83 43.51 273.6 43.51Z" fill="#474F5D"/>
<path d="M279.29 43.51H280.59C281.36 43.51 281.98 44.13 281.98 44.9V57.6C281.98 58.37 281.36 58.99 280.59 58.99H279.29C278.52 58.99 277.9 58.37 277.9 57.6V44.9C277.9 44.13 278.53 43.51 279.29 43.51Z" fill="#474F5D"/>
<path d="M284.99 43.51H286.29C287.06 43.51 287.68 44.13 287.68 44.9V57.6C287.68 58.37 287.06 58.99 286.29 58.99H284.99C284.22 58.99 283.6 58.37 283.6 57.6V44.9C283.6 44.13 284.22 43.51 284.99 43.51Z" fill="#474F5D"/>
<path d="M232.11 43.51H233.41C234.18 43.51 234.8 44.13 234.8 44.9V57.6C234.8 58.37 234.18 58.99 233.41 58.99H232.11C231.34 58.99 230.72 58.37 230.72 57.6V44.9C230.72 44.13 231.34 43.51 232.11 43.51Z" fill="#474F5D"/>
<path d="M237.8 43.51H239.1C239.87 43.51 240.49 44.13 240.49 44.9V57.6C240.49 58.37 239.87 58.99 239.1 58.99H237.8C237.03 58.99 236.41 58.37 236.41 57.6V44.9C236.41 44.13 237.04 43.51 237.8 43.51Z" fill="#474F5D"/>
<path d="M243.5 43.51H244.8C245.57 43.51 246.19 44.13 246.19 44.9V57.6C246.19 58.37 245.57 58.99 244.8 58.99H243.5C242.73 58.99 242.11 58.37 242.11 57.6V44.9C242.11 44.13 242.73 43.51 243.5 43.51Z" fill="#474F5D"/>
<path d="M308.45 44.91V46.21C308.45 46.98 307.83 47.6 307.06 47.6H294.36C293.59 47.6 292.97 46.98 292.97 46.21V44.91C292.97 44.14 293.59 43.52 294.36 43.52H307.06C307.82 43.51 308.45 44.14 308.45 44.91Z" fill="#474F5D"/>
<path d="M308.45 50.6V51.9C308.45 52.67 307.83 53.29 307.06 53.29H294.36C293.59 53.29 292.97 52.67 292.97 51.9V50.6C292.97 49.83 293.59 49.21 294.36 49.21H307.06C307.82 49.21 308.45 49.83 308.45 50.6Z" fill="#474F5D"/>
<path d="M308.45 56.29V57.59C308.45 58.36 307.83 58.98 307.06 58.98H294.36C293.59 58.98 292.97 58.36 292.97 57.59V56.29C292.97 55.52 293.59 54.9 294.36 54.9H307.06C307.82 54.9 308.45 55.53 308.45 56.29Z" fill="#474F5D"/>
<path d="M19.6995 15.9199V6.50994C19.6995 6.44994 19.6695 6.38994 19.6095 6.34994L10.5895 1.14994C10.5495 1.11994 10.4895 1.11994 10.4495 1.14994L1.42953 6.34994C1.36953 6.37994 1.33953 6.43994 1.33953 6.50994V15.9199H0.159531C0.0795306 15.9199 0.0195312 15.9799 0.0195312 16.0599V19.3199C0.0195312 19.3999 0.0795306 19.4599 0.159531 19.4599H1.33953H6.19953H14.8495H19.7095H20.8095C20.8895 19.4599 20.9495 19.3999 20.9495 19.3199V16.0599C20.9495 15.9799 20.8895 15.9199 20.8095 15.9199H19.6995ZM4.88953 15.9199L4.91953 8.33994L10.5295 5.09994L16.1395 8.33994V15.9199H4.88953Z" fill="#FDC300"/>
<path d="M84.25 45.63V55.04C84.25 55.1 84.28 55.16 84.34 55.2L93.36 60.4C93.4 60.43 93.46 60.43 93.5 60.4L102.52 55.2C102.58 55.17 102.61 55.11 102.61 55.04V45.63H103.79C103.87 45.63 103.93 45.57 103.93 45.49V42.23C103.93 42.15 103.87 42.09 103.79 42.09H102.61H97.75H89.1H84.24H83.14C83.06 42.09 83 42.15 83 42.23V45.49C83 45.57 83.06 45.63 83.14 45.63H84.25ZM99.06 45.63L99.03 53.21L93.42 56.45L87.81 53.21V45.63H99.06Z" fill="#FDC300"/>
<path d="M24.8802 2.55994H26.1802C26.9502 2.55994 27.5702 3.17994 27.5702 3.94994V16.6499C27.5702 17.4199 26.9502 18.0399 26.1802 18.0399H24.8802C24.1102 18.0399 23.4902 17.4199 23.4902 16.6499V3.94994C23.4902 3.17994 24.1102 2.55994 24.8802 2.55994Z" fill="#474F5D"/>
<path d="M30.5697 2.55994H31.8697C32.6397 2.55994 33.2597 3.17994 33.2597 3.94994V16.6499C33.2597 17.4199 32.6397 18.0399 31.8697 18.0399H30.5697C29.7997 18.0399 29.1797 17.4199 29.1797 16.6499V3.94994C29.1797 3.17994 29.7997 2.55994 30.5697 2.55994Z" fill="#474F5D"/>
<path d="M36.2601 2.55994H37.5601C38.3301 2.55994 38.9501 3.17994 38.9501 3.94994V16.6499C38.9501 17.4199 38.3301 18.0399 37.5601 18.0399H36.2601C35.4901 18.0399 34.8701 17.4199 34.8701 16.6499V3.94994C34.8701 3.17994 35.5001 2.55994 36.2601 2.55994Z" fill="#474F5D"/>
<path d="M59.7202 3.95994V5.25994C59.7202 6.02994 59.1002 6.64994 58.3302 6.64994H45.6302C44.8602 6.64994 44.2402 6.02994 44.2402 5.25994V3.95994C44.2402 3.18994 44.8602 2.56994 45.6302 2.56994H58.3302C59.1002 2.55994 59.7202 3.18994 59.7202 3.95994Z" fill="#474F5D"/>
<path d="M59.7202 9.65001V10.95C59.7202 11.72 59.1002 12.34 58.3302 12.34H45.6302C44.8602 12.34 44.2402 11.72 44.2402 10.95V9.65001C44.2402 8.88001 44.8602 8.26001 45.6302 8.26001H58.3302C59.1002 8.26001 59.7202 8.88001 59.7202 9.65001Z" fill="#474F5D"/>
<path d="M59.7202 15.34V16.6399C59.7202 17.4099 59.1002 18.0299 58.3302 18.0299H45.6302C44.8602 18.0299 44.2402 17.4099 44.2402 16.6399V15.34C44.2402 14.57 44.8602 13.95 45.6302 13.95H58.3302C59.1002 13.95 59.7202 14.58 59.7202 15.34Z" fill="#474F5D"/>
<path d="M107.88 2.55994H109.18C109.95 2.55994 110.57 3.17994 110.57 3.94994V16.6499C110.57 17.4199 109.95 18.0399 109.18 18.0399H107.88C107.11 18.0399 106.49 17.4199 106.49 16.6499V3.94994C106.49 3.17994 107.11 2.55994 107.88 2.55994Z" fill="#474F5D"/>
<path d="M113.57 2.55994H114.87C115.64 2.55994 116.26 3.17994 116.26 3.94994V16.6499C116.26 17.4199 115.64 18.0399 114.87 18.0399H113.57C112.8 18.0399 112.18 17.4199 112.18 16.6499V3.94994C112.18 3.17994 112.8 2.55994 113.57 2.55994Z" fill="#474F5D"/>
<path d="M119.27 2.55994H120.57C121.34 2.55994 121.96 3.17994 121.96 3.94994V16.6499C121.96 17.4199 121.34 18.0399 120.57 18.0399H119.27C118.5 18.0399 117.88 17.4199 117.88 16.6499V3.94994C117.88 3.17994 118.5 2.55994 119.27 2.55994Z" fill="#474F5D"/>
<path d="M142.72 3.95994V5.25994C142.72 6.02994 142.1 6.64994 141.33 6.64994H128.63C127.86 6.64994 127.24 6.02994 127.24 5.25994V3.95994C127.24 3.18994 127.86 2.56994 128.63 2.56994H141.33C142.1 2.55994 142.72 3.18994 142.72 3.95994Z" fill="#474F5D"/>
<path d="M142.72 9.65001V10.95C142.72 11.72 142.1 12.34 141.33 12.34H128.63C127.86 12.34 127.24 11.72 127.24 10.95V9.65001C127.24 8.88001 127.86 8.26001 128.63 8.26001H141.33C142.1 8.26001 142.72 8.88001 142.72 9.65001Z" fill="#474F5D"/>
<path d="M142.72 15.34V16.6399C142.72 17.4099 142.1 18.0299 141.33 18.0299H128.63C127.86 18.0299 127.24 17.4099 127.24 16.6399V15.34C127.24 14.57 127.86 13.95 128.63 13.95H141.33C142.1 13.95 142.72 14.58 142.72 15.34Z" fill="#474F5D"/>
<path d="M149.38 2.55994H150.68C151.45 2.55994 152.07 3.17994 152.07 3.94994V16.6499C152.07 17.4199 151.45 18.0399 150.68 18.0399H149.38C148.61 18.0399 147.99 17.4199 147.99 16.6499V3.94994C147.99 3.17994 148.61 2.55994 149.38 2.55994Z" fill="#474F5D"/>
<path d="M155.07 2.55994H156.37C157.14 2.55994 157.76 3.17994 157.76 3.94994V16.6499C157.76 17.4199 157.14 18.0399 156.37 18.0399H155.07C154.3 18.0399 153.68 17.4199 153.68 16.6499V3.94994C153.68 3.17994 154.3 2.55994 155.07 2.55994Z" fill="#474F5D"/>
<path d="M160.77 2.55994H162.07C162.84 2.55994 163.46 3.17994 163.46 3.94994V16.6499C163.46 17.4199 162.84 18.0399 162.07 18.0399H160.77C160 18.0399 159.38 17.4199 159.38 16.6499V3.94994C159.38 3.17994 160 2.55994 160.77 2.55994Z" fill="#474F5D"/>
<path d="M184.22 3.95994V5.25994C184.22 6.02994 183.6 6.64994 182.83 6.64994H170.13C169.36 6.64994 168.74 6.02994 168.74 5.25994V3.95994C168.74 3.18994 169.36 2.56994 170.13 2.56994H182.83C183.6 2.55994 184.22 3.18994 184.22 3.95994Z" fill="#474F5D"/>
<path d="M184.22 9.65001V10.95C184.22 11.72 183.6 12.34 182.83 12.34H170.13C169.36 12.34 168.74 11.72 168.74 10.95V9.65001C168.74 8.88001 169.36 8.26001 170.13 8.26001H182.83C183.6 8.26001 184.22 8.88001 184.22 9.65001Z" fill="#474F5D"/>
<path d="M184.22 15.34V16.6399C184.22 17.4099 183.6 18.0299 182.83 18.0299H170.13C169.36 18.0299 168.74 17.4099 168.74 16.6399V15.34C168.74 14.57 169.36 13.95 170.13 13.95H182.83C183.6 13.95 184.22 14.58 184.22 15.34Z" fill="#474F5D"/>
<path d="M232.38 2.55994H233.68C234.45 2.55994 235.07 3.17994 235.07 3.94994V16.6499C235.07 17.4199 234.45 18.0399 233.68 18.0399H232.38C231.61 18.0399 230.99 17.4199 230.99 16.6499V3.94994C230.99 3.17994 231.61 2.55994 232.38 2.55994Z" fill="#474F5D"/>
<path d="M238.07 2.55994H239.37C240.14 2.55994 240.76 3.17994 240.76 3.94994V16.6499C240.76 17.4199 240.14 18.0399 239.37 18.0399H238.07C237.3 18.0399 236.68 17.4199 236.68 16.6499V3.94994C236.68 3.17994 237.31 2.55994 238.07 2.55994Z" fill="#474F5D"/>
<path d="M243.77 2.55994H245.07C245.84 2.55994 246.46 3.17994 246.46 3.94994V16.6499C246.46 17.4199 245.84 18.0399 245.07 18.0399H243.77C243 18.0399 242.38 17.4199 242.38 16.6499V3.94994C242.38 3.17994 243 2.55994 243.77 2.55994Z" fill="#474F5D"/>
<path d="M246.46 24.43V25.73C246.46 26.5 245.84 27.12 245.07 27.12H232.37C231.6 27.12 230.98 26.5 230.98 25.73V24.43C230.98 23.66 231.6 23.04 232.37 23.04H245.07C245.84 23.04 246.46 23.66 246.46 24.43Z" fill="#474F5D"/>
<path d="M246.46 30.12V31.42C246.46 32.19 245.84 32.81 245.07 32.81H232.37C231.6 32.81 230.98 32.19 230.98 31.42V30.12C230.98 29.35 231.6 28.73 232.37 28.73H245.07C245.84 28.73 246.46 29.35 246.46 30.12Z" fill="#474F5D"/>
<path d="M246.46 35.8199V37.1199C246.46 37.8899 245.84 38.5099 245.07 38.5099H232.37C231.6 38.5099 230.98 37.8899 230.98 37.1199V35.8199C230.98 35.0499 231.6 34.4299 232.37 34.4299H245.07C245.84 34.4299 246.46 35.0499 246.46 35.8199Z" fill="#474F5D"/>
<path d="M4.14 23.04H5.44C6.21 23.04 6.83 23.66 6.83 24.43V37.13C6.83 37.9 6.21 38.52 5.44 38.52H4.14C3.37 38.52 2.75 37.9 2.75 37.13V24.43C2.75 23.66 3.37 23.04 4.14 23.04Z" fill="#474F5D"/>
<path d="M9.83043 23.04H11.1304C11.9004 23.04 12.5204 23.66 12.5204 24.43V37.13C12.5204 37.9 11.9004 38.52 11.1304 38.52H9.83043C9.06043 38.52 8.44043 37.9 8.44043 37.13V24.43C8.44043 23.66 9.07043 23.04 9.83043 23.04Z" fill="#474F5D"/>
<path d="M15.5296 23.04H16.8296C17.5996 23.04 18.2197 23.66 18.2197 24.43V37.13C18.2197 37.9 17.5996 38.52 16.8296 38.52H15.5296C14.7596 38.52 14.1396 37.9 14.1396 37.13V24.43C14.1396 23.66 14.7596 23.04 15.5296 23.04Z" fill="#474F5D"/>
<path d="M45.64 23.04H46.94C47.71 23.04 48.33 23.66 48.33 24.43V37.13C48.33 37.9 47.71 38.52 46.94 38.52H45.64C44.87 38.52 44.25 37.9 44.25 37.13V24.43C44.25 23.66 44.87 23.04 45.64 23.04Z" fill="#474F5D"/>
<path d="M51.3304 23.04H52.6304C53.4004 23.04 54.0204 23.66 54.0204 24.43V37.13C54.0204 37.9 53.4004 38.52 52.6304 38.52H51.3304C50.5604 38.52 49.9404 37.9 49.9404 37.13V24.43C49.9404 23.66 50.5704 23.04 51.3304 23.04Z" fill="#474F5D"/>
<path d="M57.0296 23.04H58.3296C59.0996 23.04 59.7196 23.66 59.7196 24.43V37.13C59.7196 37.9 59.0996 38.52 58.3296 38.52H57.0296C56.2596 38.52 55.6396 37.9 55.6396 37.13V24.43C55.6396 23.66 56.2596 23.04 57.0296 23.04Z" fill="#474F5D"/>
<path d="M87.14 23.04H88.44C89.21 23.04 89.83 23.66 89.83 24.43V37.13C89.83 37.9 89.21 38.52 88.44 38.52H87.14C86.37 38.52 85.75 37.9 85.75 37.13V24.43C85.75 23.66 86.37 23.04 87.14 23.04Z" fill="#474F5D"/>
<path d="M92.8304 23.04H94.1304C94.9004 23.04 95.5204 23.66 95.5204 24.43V37.13C95.5204 37.9 94.9004 38.52 94.1304 38.52H92.8304C92.0604 38.52 91.4404 37.9 91.4404 37.13V24.43C91.4404 23.66 92.0704 23.04 92.8304 23.04Z" fill="#474F5D"/>
<path d="M98.5296 23.04H99.8297C100.6 23.04 101.22 23.66 101.22 24.43V37.13C101.22 37.9 100.6 38.52 99.8297 38.52H98.5296C97.7596 38.52 97.1396 37.9 97.1396 37.13V24.43C97.1396 23.66 97.7596 23.04 98.5296 23.04Z" fill="#474F5D"/>
<path d="M163.49 24.43V25.73C163.49 26.5 162.87 27.12 162.1 27.12H149.4C148.63 27.12 148.01 26.5 148.01 25.73V24.43C148.01 23.66 148.63 23.04 149.4 23.04H162.1C162.86 23.04 163.49 23.66 163.49 24.43Z" fill="#474F5D"/>
<path d="M163.49 30.12V31.42C163.49 32.19 162.87 32.81 162.1 32.81H149.4C148.63 32.81 148.01 32.19 148.01 31.42V30.12C148.01 29.35 148.63 28.73 149.4 28.73H162.1C162.86 28.73 163.49 29.35 163.49 30.12Z" fill="#474F5D"/>
<path d="M163.49 35.8199V37.1199C163.49 37.8899 162.87 38.5099 162.1 38.5099H149.4C148.63 38.5099 148.01 37.8899 148.01 37.1199V35.8199C148.01 35.0499 148.63 34.4299 149.4 34.4299H162.1C162.86 34.4299 163.49 35.0499 163.49 35.8199Z" fill="#474F5D"/>
<path d="M170.14 23.04H171.44C172.21 23.04 172.83 23.66 172.83 24.43V37.13C172.83 37.9 172.21 38.52 171.44 38.52H170.14C169.37 38.52 168.75 37.9 168.75 37.13V24.43C168.75 23.66 169.37 23.04 170.14 23.04Z" fill="#474F5D"/>
<path d="M175.84 23.04H177.14C177.91 23.04 178.53 23.66 178.53 24.43V37.13C178.53 37.9 177.91 38.52 177.14 38.52H175.84C175.07 38.52 174.45 37.9 174.45 37.13V24.43C174.45 23.66 175.07 23.04 175.84 23.04Z" fill="#474F5D"/>
<path d="M181.53 23.04H182.83C183.6 23.04 184.22 23.66 184.22 24.43V37.13C184.22 37.9 183.6 38.52 182.83 38.52H181.53C180.76 38.52 180.14 37.9 180.14 37.13V24.43C180.14 23.66 180.76 23.04 181.53 23.04Z" fill="#474F5D"/>
<path d="M204.99 24.43V25.73C204.99 26.5 204.37 27.12 203.6 27.12H190.9C190.13 27.12 189.51 26.5 189.51 25.73V24.43C189.51 23.66 190.13 23.04 190.9 23.04H203.6C204.37 23.04 204.99 23.66 204.99 24.43Z" fill="#474F5D"/>
<path d="M204.99 30.12V31.42C204.99 32.19 204.37 32.81 203.6 32.81H190.9C190.13 32.81 189.51 32.19 189.51 31.42V30.12C189.51 29.35 190.13 28.73 190.9 28.73H203.6C204.37 28.73 204.99 29.35 204.99 30.12Z" fill="#474F5D"/>
<path d="M204.99 35.8199V37.1199C204.99 37.8899 204.37 38.5099 203.6 38.5099H190.9C190.13 38.5099 189.51 37.8899 189.51 37.1199V35.8199C189.51 35.0499 190.13 34.4299 190.9 34.4299H203.6C204.37 34.4299 204.99 35.0499 204.99 35.8199Z" fill="#474F5D"/>
<path d="M211.64 23.04H212.94C213.71 23.04 214.33 23.66 214.33 24.43V37.13C214.33 37.9 213.71 38.52 212.94 38.52H211.64C210.87 38.52 210.25 37.9 210.25 37.13V24.43C210.25 23.66 210.87 23.04 211.64 23.04Z" fill="#474F5D"/>
<path d="M217.34 23.04H218.64C219.41 23.04 220.03 23.66 220.03 24.43V37.13C220.03 37.9 219.41 38.52 218.64 38.52H217.34C216.57 38.52 215.95 37.9 215.95 37.13V24.43C215.95 23.66 216.57 23.04 217.34 23.04Z" fill="#474F5D"/>
<path d="M223.03 23.04H224.33C225.1 23.04 225.72 23.66 225.72 24.43V37.13C225.72 37.9 225.1 38.52 224.33 38.52H223.03C222.26 38.52 221.64 37.9 221.64 37.13V24.43C221.64 23.66 222.26 23.04 223.03 23.04Z" fill="#474F5D"/>
<path d="M24.8802 43.51H26.1802C26.9502 43.51 27.5702 44.13 27.5702 44.9V57.6C27.5702 58.37 26.9502 58.99 26.1802 58.99H24.8802C24.1102 58.99 23.4902 58.37 23.4902 57.6V44.9C23.4902 44.13 24.1102 43.51 24.8802 43.51Z" fill="#474F5D"/>
<path d="M30.5697 43.51H31.8697C32.6397 43.51 33.2597 44.13 33.2597 44.9V57.6C33.2597 58.37 32.6397 58.99 31.8697 58.99H30.5697C29.7997 58.99 29.1797 58.37 29.1797 57.6V44.9C29.1797 44.13 29.7997 43.51 30.5697 43.51Z" fill="#474F5D"/>
<path d="M36.2601 43.51H37.5601C38.3301 43.51 38.9501 44.13 38.9501 44.9V57.6C38.9501 58.37 38.3301 58.99 37.5601 58.99H36.2601C35.4901 58.99 34.8701 58.37 34.8701 57.6V44.9C34.8701 44.13 35.5001 43.51 36.2601 43.51Z" fill="#474F5D"/>
<path d="M59.7202 44.91V46.21C59.7202 46.98 59.1002 47.6 58.3302 47.6H45.6302C44.8602 47.6 44.2402 46.98 44.2402 46.21V44.91C44.2402 44.14 44.8602 43.52 45.6302 43.52H58.3302C59.1002 43.51 59.7202 44.14 59.7202 44.91Z" fill="#474F5D"/>
<path d="M59.7202 50.6V51.9C59.7202 52.67 59.1002 53.29 58.3302 53.29H45.6302C44.8602 53.29 44.2402 52.67 44.2402 51.9V50.6C44.2402 49.83 44.8602 49.21 45.6302 49.21H58.3302C59.1002 49.21 59.7202 49.83 59.7202 50.6Z" fill="#474F5D"/>
<path d="M59.7202 56.29V57.59C59.7202 58.36 59.1002 58.98 58.3302 58.98H45.6302C44.8602 58.98 44.2402 58.36 44.2402 57.59V56.29C44.2402 55.52 44.8602 54.9 45.6302 54.9H58.3302C59.1002 54.9 59.7202 55.53 59.7202 56.29Z" fill="#474F5D"/>
<path d="M66.3802 43.51H67.6802C68.4502 43.51 69.0702 44.13 69.0702 44.9V57.6C69.0702 58.37 68.4502 58.99 67.6802 58.99H66.3802C65.6102 58.99 64.9902 58.37 64.9902 57.6V44.9C64.9902 44.13 65.6102 43.51 66.3802 43.51Z" fill="#474F5D"/>
<path d="M72.0697 43.51H73.3697C74.1397 43.51 74.7597 44.13 74.7597 44.9V57.6C74.7597 58.37 74.1397 58.99 73.3697 58.99H72.0697C71.2997 58.99 70.6797 58.37 70.6797 57.6V44.9C70.6797 44.13 71.2997 43.51 72.0697 43.51Z" fill="#474F5D"/>
<path d="M77.7699 43.51H79.0699C79.8399 43.51 80.4599 44.13 80.4599 44.9V57.6C80.4599 58.37 79.8399 58.99 79.0699 58.99H77.7699C76.9999 58.99 76.3799 58.37 76.3799 57.6V44.9C76.3799 44.13 76.9999 43.51 77.7699 43.51Z" fill="#474F5D"/>
<path d="M107.88 43.51H109.18C109.95 43.51 110.57 44.13 110.57 44.9V57.6C110.57 58.37 109.95 58.99 109.18 58.99H107.88C107.11 58.99 106.49 58.37 106.49 57.6V44.9C106.49 44.13 107.11 43.51 107.88 43.51Z" fill="#474F5D"/>
<path d="M113.57 43.51H114.87C115.64 43.51 116.26 44.13 116.26 44.9V57.6C116.26 58.37 115.64 58.99 114.87 58.99H113.57C112.8 58.99 112.18 58.37 112.18 57.6V44.9C112.18 44.13 112.8 43.51 113.57 43.51Z" fill="#474F5D"/>
<path d="M119.27 43.51H120.57C121.34 43.51 121.96 44.13 121.96 44.9V57.6C121.96 58.37 121.34 58.99 120.57 58.99H119.27C118.5 58.99 117.88 58.37 117.88 57.6V44.9C117.88 44.13 118.5 43.51 119.27 43.51Z" fill="#474F5D"/>
<path d="M190.88 43.51H192.18C192.95 43.51 193.57 44.13 193.57 44.9V57.6C193.57 58.37 192.95 58.99 192.18 58.99H190.88C190.11 58.99 189.49 58.37 189.49 57.6V44.9C189.49 44.13 190.11 43.51 190.88 43.51Z" fill="#474F5D"/>
<path d="M196.57 43.51H197.87C198.64 43.51 199.26 44.13 199.26 44.9V57.6C199.26 58.37 198.64 58.99 197.87 58.99H196.57C195.8 58.99 195.18 58.37 195.18 57.6V44.9C195.18 44.13 195.81 43.51 196.57 43.51Z" fill="#474F5D"/>
<path d="M202.27 43.51H203.57C204.34 43.51 204.96 44.13 204.96 44.9V57.6C204.96 58.37 204.34 58.99 203.57 58.99H202.27C201.5 58.99 200.88 58.37 200.88 57.6V44.9C200.88 44.13 201.5 43.51 202.27 43.51Z" fill="#474F5D"/>
<path d="M225.72 44.91V46.21C225.72 46.98 225.1 47.6 224.33 47.6H211.63C210.86 47.6 210.24 46.98 210.24 46.21V44.91C210.24 44.14 210.86 43.52 211.63 43.52H224.33C225.1 43.51 225.72 44.14 225.72 44.91Z" fill="#474F5D"/>
<path d="M225.72 50.6V51.9C225.72 52.67 225.1 53.29 224.33 53.29H211.63C210.86 53.29 210.24 52.67 210.24 51.9V50.6C210.24 49.83 210.86 49.21 211.63 49.21H224.33C225.1 49.21 225.72 49.83 225.72 50.6Z" fill="#474F5D"/>
<path d="M225.72 56.29V57.59C225.72 58.36 225.1 58.98 224.33 58.98H211.63C210.86 58.98 210.24 58.36 210.24 57.59V56.29C210.24 55.52 210.86 54.9 211.63 54.9H224.33C225.1 54.9 225.72 55.53 225.72 56.29Z" fill="#474F5D"/>
<path d="M232.38 43.51H233.68C234.45 43.51 235.07 44.13 235.07 44.9V57.6C235.07 58.37 234.45 58.99 233.68 58.99H232.38C231.61 58.99 230.99 58.37 230.99 57.6V44.9C230.99 44.13 231.61 43.51 232.38 43.51Z" fill="#474F5D"/>
<path d="M238.07 43.51H239.37C240.14 43.51 240.76 44.13 240.76 44.9V57.6C240.76 58.37 240.14 58.99 239.37 58.99H238.07C237.3 58.99 236.68 58.37 236.68 57.6V44.9C236.68 44.13 237.31 43.51 238.07 43.51Z" fill="#474F5D"/>
<path d="M243.77 43.51H245.07C245.84 43.51 246.46 44.13 246.46 44.9V57.6C246.46 58.37 245.84 58.99 245.07 58.99H243.77C243 58.99 242.38 58.37 242.38 57.6V44.9C242.38 44.13 243 43.51 243.77 43.51Z" fill="#474F5D"/>
<path d="M14.3196 44.09H7.18957H3.46957C3.37957 44.09 3.30957 44.16 3.30957 44.25V47.97V54.91V58.6C3.30957 58.69 3.37957 58.76 3.46957 58.76H18.0296C18.1196 58.76 18.1896 58.69 18.1896 58.6V54.91V47.97V44.25C18.1896 44.16 18.1196 44.09 18.0296 44.09H14.3196ZM14.3196 54.9H7.18957V47.96H14.3196V54.9Z" fill="#474F5D"/>
</g>
</g>
<defs>
<clipPath id="clip0_192_7311">
<rect width="313" height="62" fill="white"/>
</clipPath>
<clipPath id="clip1_192_7311">
<rect width="2011.02" height="141.688" fill="white" transform="translate(-18 -40)"/>
</clipPath>
</defs>
</svg>
