<svg width="50" height="50" viewBox="0 0 50 50" fill="none" xmlns="http://www.w3.org/2000/svg">
<circle cx="25" cy="25" r="25" fill="#F9BC07"/>
<path d="M16.9884 30.3888L17.0463 19.4262L25.0772 14.7446L33.1081 19.4262V30.3888H16.9884ZM38.2046 30.3888V16.7733C38.2046 16.6758 38.166 16.5977 38.0888 16.5587L25.1544 9.02926C25.0965 8.99025 25.0193 8.99025 24.9614 9.02926L12.0463 16.5587C11.9498 16.5977 11.9112 16.6758 11.9112 16.7733V30.3888H10.2124C10.0965 30.3888 10 30.4863 10 30.6033V35.3239C10 35.4409 10.0965 35.5385 10.2124 35.5385H11.9112H18.861H31.2548H38.2046H39.7876C39.9035 35.5385 40 35.4409 40 35.3239V30.6033C40 30.4863 39.9035 30.3888 39.7876 30.3888H38.2046Z" fill="#1C1D20"/>
</svg>
